<svg width="100" height="22" viewBox="0 0 100 22" fill="none" xmlns="http://www.w3.org/2000/svg">
<path d="M0 0H59.908C67.5252 0 75.033 1.81424 81.8097 5.29255C85.387 7.12867 88.6756 9.47966 91.5704 12.2704L92.3937 13.0642C93.927 14.5423 95.3363 16.1439 96.6074 17.8527L99.0969 21.1992H16.8196C16.0102 21.1992 15.2805 20.7113 14.9713 19.9632L14.8045 19.5596C12.1787 13.2067 8.19137 7.50705 3.12352 2.86258L0 0Z" fill="#D9A845"/>
<path d="M22.5841 14.2016C22.2241 14.2016 21.8824 14.1449 21.5591 14.0316C21.2391 13.9149 20.9691 13.7332 20.7491 13.4866C20.5324 13.2399 20.3957 12.9216 20.3391 12.5316H21.4091C21.4557 12.7216 21.5374 12.8766 21.6541 12.9966C21.7741 13.1166 21.9141 13.2049 22.0741 13.2616C22.2374 13.3149 22.4057 13.3416 22.5791 13.3416C22.8891 13.3416 23.1391 13.2882 23.3291 13.1816C23.5191 13.0749 23.6141 12.9099 23.6141 12.6866C23.6141 12.5232 23.5607 12.3932 23.4541 12.2966C23.3507 12.1999 23.1807 12.1266 22.9441 12.0766L21.9641 11.8516C21.5241 11.7549 21.1724 11.5949 20.9091 11.3716C20.6457 11.1482 20.5124 10.8332 20.5091 10.4266C20.5057 10.1199 20.5824 9.84656 20.7391 9.60656C20.8957 9.36656 21.1291 9.17823 21.4391 9.04156C21.7491 8.90156 22.1307 8.83156 22.5841 8.83156C23.1874 8.83156 23.6707 8.96656 24.0341 9.23656C24.4007 9.50323 24.5891 9.8849 24.5991 10.3816H23.5641C23.5274 10.1582 23.4224 9.9849 23.2491 9.86156C23.0757 9.7349 22.8507 9.67156 22.5741 9.67156C22.2874 9.67156 22.0524 9.72656 21.8691 9.83656C21.6857 9.94656 21.5941 10.1149 21.5941 10.3416C21.5941 10.4982 21.6624 10.6216 21.7991 10.7116C21.9391 10.8016 22.1507 10.8782 22.4341 10.9416L23.3641 11.1666C23.6307 11.2332 23.8491 11.3232 24.0191 11.4366C24.1891 11.5499 24.3207 11.6749 24.4141 11.8116C24.5107 11.9449 24.5774 12.0832 24.6141 12.2266C24.6541 12.3666 24.6741 12.4966 24.6741 12.6166C24.6741 12.9499 24.5874 13.2349 24.4141 13.4716C24.2441 13.7049 24.0024 13.8849 23.6891 14.0116C23.3791 14.1382 23.0107 14.2016 22.5841 14.2016ZM27.3041 14.2016C26.9741 14.2016 26.6775 14.1416 26.4141 14.0216C26.1541 13.8982 25.9491 13.7232 25.7991 13.4966C25.6525 13.2666 25.5791 12.9882 25.5791 12.6616C25.5791 12.0916 25.7841 11.6616 26.1941 11.3716C26.6075 11.0816 27.2641 10.9299 28.1641 10.9166L28.9391 10.8966V10.5466C28.9391 10.2732 28.8575 10.0599 28.6941 9.90656C28.5341 9.7499 28.2841 9.67323 27.9441 9.67656C27.6908 9.6799 27.4608 9.7399 27.2541 9.85656C27.0475 9.9699 26.9108 10.1616 26.8441 10.4316H25.8091C25.8291 10.0782 25.9308 9.78323 26.1141 9.54656C26.3008 9.30656 26.5558 9.12823 26.8791 9.01156C27.2025 8.89156 27.5758 8.83156 27.9991 8.83156C28.4925 8.83156 28.8941 8.89656 29.2041 9.02656C29.5141 9.15656 29.7425 9.3449 29.8891 9.59156C30.0358 9.8349 30.1091 10.1299 30.1091 10.4766V14.1016H29.0841L28.9841 13.1716C28.8008 13.5616 28.5658 13.8316 28.2791 13.9816C27.9958 14.1282 27.6708 14.2016 27.3041 14.2016ZM27.6991 13.3766C27.8491 13.3766 27.9975 13.3499 28.1441 13.2966C28.2908 13.2399 28.4225 13.1649 28.5391 13.0716C28.6591 12.9749 28.7541 12.8682 28.8241 12.7516C28.8975 12.6349 28.9358 12.5132 28.9391 12.3866V11.5716L28.3041 11.5816C27.9908 11.5849 27.7158 11.6182 27.4791 11.6816C27.2458 11.7449 27.0641 11.8466 26.9341 11.9866C26.8041 12.1232 26.7391 12.3066 26.7391 12.5366C26.7391 12.7999 26.8308 13.0066 27.0141 13.1566C27.1975 13.3032 27.4258 13.3766 27.6991 13.3766ZM32.6291 14.1016L30.7191 8.93156H31.8341L33.0741 12.5516H33.1391L34.3741 8.93156H35.4941L33.5891 14.1016H32.6291ZM38.5141 14.2016C38.0174 14.2016 37.5791 14.0966 37.1991 13.8866C36.8224 13.6732 36.5274 13.3699 36.3141 12.9766C36.1041 12.5832 35.9991 12.1149 35.9991 11.5716C35.9991 11.0416 36.0941 10.5716 36.2841 10.1616C36.4774 9.74823 36.7557 9.42323 37.1191 9.18656C37.4857 8.9499 37.9274 8.83156 38.4441 8.83156C38.9541 8.83156 39.3824 8.9399 39.7291 9.15656C40.0757 9.37323 40.3391 9.67656 40.5191 10.0666C40.6991 10.4532 40.7891 10.9066 40.7891 11.4266V11.7966H37.2141C37.2107 12.0899 37.2574 12.3499 37.3541 12.5766C37.4507 12.8032 37.5941 12.9816 37.7841 13.1116C37.9741 13.2382 38.2091 13.3016 38.4891 13.3016C38.7757 13.3016 39.0241 13.2382 39.2341 13.1116C39.4474 12.9816 39.5891 12.7849 39.6591 12.5216H40.7691C40.7091 12.8816 40.5657 13.1866 40.3391 13.4366C40.1157 13.6866 39.8424 13.8766 39.5191 14.0066C39.1991 14.1366 38.8641 14.2016 38.5141 14.2016ZM37.2091 11.0416H39.6391C39.6391 10.7916 39.5941 10.5666 39.5041 10.3666C39.4174 10.1632 39.2857 10.0032 39.1091 9.88656C38.9324 9.76656 38.7091 9.70656 38.4391 9.70656C38.1724 9.70656 37.9474 9.77156 37.7641 9.90156C37.5807 10.0316 37.4424 10.1999 37.3491 10.4066C37.2557 10.6099 37.2091 10.8216 37.2091 11.0416ZM46.319 14.2016C45.8257 14.2016 45.3957 14.0966 45.029 13.8866C44.6623 13.6732 44.3773 13.3682 44.174 12.9716C43.974 12.5749 43.874 12.0982 43.874 11.5416C43.874 11.0016 43.9723 10.5282 44.169 10.1216C44.3657 9.7149 44.6457 9.39823 45.009 9.17156C45.3757 8.9449 45.814 8.83156 46.324 8.83156C46.8173 8.83156 47.2457 8.9399 47.609 9.15656C47.9723 9.37323 48.2523 9.68323 48.449 10.0866C48.649 10.4899 48.749 10.9749 48.749 11.5416C48.749 12.0649 48.654 12.5266 48.464 12.9266C48.2773 13.3232 48.0023 13.6349 47.639 13.8616C47.279 14.0882 46.839 14.2016 46.319 14.2016ZM46.324 13.2766C46.604 13.2766 46.834 13.1999 47.014 13.0466C47.1973 12.8932 47.334 12.6832 47.424 12.4166C47.514 12.1499 47.559 11.8466 47.559 11.5066C47.559 11.1899 47.519 10.8982 47.439 10.6316C47.359 10.3649 47.2273 10.1516 47.044 9.99156C46.864 9.82823 46.624 9.74656 46.324 9.74656C46.0407 9.74656 45.8057 9.82156 45.619 9.97156C45.4357 10.1182 45.299 10.3249 45.209 10.5916C45.119 10.8549 45.074 11.1599 45.074 11.5066C45.074 11.8199 45.114 12.1116 45.194 12.3816C45.274 12.6482 45.4057 12.8649 45.589 13.0316C45.7723 13.1949 46.0173 13.2766 46.324 13.2766ZM51.1349 14.1016L49.2249 8.93156H50.3399L51.5799 12.5516H51.6449L52.8799 8.93156H53.9999L52.0949 14.1016H51.1349ZM57.0199 14.2016C56.5233 14.2016 56.0849 14.0966 55.7049 13.8866C55.3283 13.6732 55.0333 13.3699 54.8199 12.9766C54.6099 12.5832 54.5049 12.1149 54.5049 11.5716C54.5049 11.0416 54.5999 10.5716 54.7899 10.1616C54.9833 9.74823 55.2616 9.42323 55.6249 9.18656C55.9916 8.9499 56.4333 8.83156 56.9499 8.83156C57.4599 8.83156 57.8883 8.9399 58.2349 9.15656C58.5816 9.37323 58.8449 9.67656 59.0249 10.0666C59.2049 10.4532 59.2949 10.9066 59.2949 11.4266V11.7966H55.7199C55.7166 12.0899 55.7633 12.3499 55.8599 12.5766C55.9566 12.8032 56.0999 12.9816 56.2899 13.1116C56.4799 13.2382 56.7149 13.3016 56.9949 13.3016C57.2816 13.3016 57.5299 13.2382 57.7399 13.1116C57.9533 12.9816 58.0949 12.7849 58.1649 12.5216H59.2749C59.2149 12.8816 59.0716 13.1866 58.8449 13.4366C58.6216 13.6866 58.3483 13.8766 58.0249 14.0066C57.7049 14.1366 57.3699 14.2016 57.0199 14.2016ZM55.7149 11.0416H58.1449C58.1449 10.7916 58.0999 10.5666 58.0099 10.3666C57.9233 10.1632 57.7916 10.0032 57.6149 9.88656C57.4383 9.76656 57.2149 9.70656 56.9449 9.70656C56.6783 9.70656 56.4533 9.77156 56.2699 9.90156C56.0866 10.0316 55.9483 10.1999 55.8549 10.4066C55.7616 10.6099 55.7149 10.8216 55.7149 11.0416ZM60.4576 14.1016V8.93156H61.6226V10.0516C61.7059 9.7949 61.8242 9.57656 61.9776 9.39656C62.1342 9.21323 62.3176 9.07323 62.5276 8.97656C62.7376 8.8799 62.9659 8.83156 63.2126 8.83156C63.2726 8.83156 63.3309 8.8349 63.3876 8.84156C63.4442 8.84823 63.4859 8.8599 63.5126 8.87656V10.0416C63.4759 10.0249 63.4276 10.0132 63.3676 10.0066C63.3109 9.9999 63.2609 9.99656 63.2176 9.99656C62.9676 9.97656 62.7459 9.98656 62.5526 10.0266C62.3626 10.0666 62.2009 10.1349 62.0676 10.2316C61.9376 10.3249 61.8392 10.4449 61.7726 10.5916C61.7059 10.7349 61.6726 10.9032 61.6726 11.0966V14.1016H60.4576ZM67.91 14.1016V8.53156H66.57V7.80656C66.9933 7.80656 67.3283 7.77156 67.575 7.70156C67.825 7.62823 68.0067 7.52156 68.12 7.38156C68.2367 7.24156 68.3033 7.07156 68.32 6.87156H69.15V14.1016H67.91ZM74.1195 14.1016L74.1245 12.3866H70.7595V11.3516L74.0895 6.87156H75.2995V11.3516H76.4545V12.3866H75.2995V14.1016H74.1195ZM71.8995 11.3516H74.1145V8.38156L71.8995 11.3516ZM78.465 14.1416L83.35 6.79156H84.085L79.225 14.1416H78.465ZM79.025 10.8766C78.685 10.8766 78.38 10.7882 78.11 10.6116C77.8433 10.4316 77.6317 10.1882 77.475 9.88156C77.3217 9.5749 77.245 9.2249 77.245 8.83156C77.245 8.4349 77.3233 8.08156 77.48 7.77156C77.6367 7.45823 77.8483 7.21156 78.115 7.03156C78.385 6.85156 78.6883 6.76156 79.025 6.76156C79.3583 6.76156 79.6583 6.85156 79.925 7.03156C80.1917 7.21156 80.4017 7.45823 80.555 7.77156C80.7083 8.08156 80.785 8.4349 80.785 8.83156C80.785 9.2249 80.7083 9.5749 80.555 9.88156C80.405 10.1882 80.1967 10.4316 79.93 10.6116C79.6633 10.7882 79.3617 10.8766 79.025 10.8766ZM79.015 10.2316C79.305 10.2316 79.5217 10.1132 79.665 9.87656C79.8083 9.63656 79.88 9.28823 79.88 8.83156C79.88 8.36156 79.8067 8.0049 79.66 7.76156C79.5133 7.51823 79.2983 7.39656 79.015 7.39656C78.7317 7.39656 78.5167 7.5199 78.37 7.76656C78.2233 8.0099 78.15 8.3649 78.15 8.83156C78.15 9.2849 78.2217 9.63156 78.365 9.87156C78.5117 10.1116 78.7283 10.2316 79.015 10.2316ZM83.67 14.2016C83.33 14.2016 83.025 14.1149 82.755 13.9416C82.485 13.7649 82.2733 13.5232 82.12 13.2166C81.9667 12.9066 81.89 12.5499 81.89 12.1466C81.89 11.7499 81.9667 11.3966 82.12 11.0866C82.2767 10.7732 82.49 10.5266 82.76 10.3466C83.03 10.1666 83.3333 10.0766 83.67 10.0766C84.0067 10.0766 84.3083 10.1666 84.575 10.3466C84.8417 10.5266 85.0517 10.7732 85.205 11.0866C85.3583 11.3966 85.435 11.7499 85.435 12.1466C85.435 12.5499 85.3583 12.9066 85.205 13.2166C85.055 13.5232 84.8467 13.7649 84.58 13.9416C84.3133 14.1149 84.01 14.2016 83.67 14.2016ZM83.66 13.5566C83.95 13.5566 84.1667 13.4382 84.31 13.2016C84.4533 12.9616 84.525 12.6132 84.525 12.1566C84.525 11.6899 84.4517 11.3349 84.305 11.0916C84.1583 10.8449 83.9433 10.7216 83.66 10.7216C83.3767 10.7216 83.1617 10.8449 83.015 11.0916C82.8717 11.3382 82.8 11.6932 82.8 12.1566C82.8 12.6099 82.8717 12.9566 83.015 13.1966C83.1583 13.4366 83.3733 13.5566 83.66 13.5566Z" fill="white"/>
</svg>
